<?xml version="1.0" encoding="utf-8"?>
<!-- Generator: Adobe Illustrator 16.0.0, SVG Export Plug-In . SVG Version: 6.00 Build 0)  -->
<!DOCTYPE svg PUBLIC "-//W3C//DTD SVG 1.1//EN" "http://www.w3.org/Graphics/SVG/1.1/DTD/svg11.dtd">
<svg version="1.1" id="Layer_1" xmlns="http://www.w3.org/2000/svg" xmlns:xlink="http://www.w3.org/1999/xlink" x="0px" y="0px"
	 width="128px" height="128px" viewBox="0 0 128 128" enable-background="new 0 0 128 128" xml:space="preserve">
<g id="Background">
	<rect fill-opacity="0" width="128" height="128"/>
</g>
<g id="Background_1_">
	<path fill="#737370" d="M18.092,6h91.811C116.552,6,122,11.441,122,18.096v91.806c0,6.656-5.448,12.098-12.098,12.098H18.092
		C11.436,122,6,116.559,6,109.902V18.096C6,11.441,11.436,6,18.092,6"/>
	<polygon fill="#ECECEC" points="24.188,21.25 70.732,33.715 41.509,50.407 41.509,112 24.188,112 24.188,23.525 24.188,23.525 	"/>
	<polygon fill="#ECECEC" points="68.832,53.007 115.378,65.471 86.152,82.162 86.152,112 68.832,112 68.832,55.281 68.832,55.281 	
		"/>
</g>
</svg>
